<?xml version="1.0" standalone="no"?>
<!DOCTYPE svg PUBLIC "-//W3C//DTD SVG 20010904//EN"
 "http://www.w3.org/TR/2001/REC-SVG-20010904/DTD/svg10.dtd">
<svg version="1.0" xmlns="http://www.w3.org/2000/svg"
 width="48.000000pt" height="48.000000pt" viewBox="0 0 48.000000 48.000000"
 preserveAspectRatio="xMidYMid meet">

<g transform="translate(0.000000,48.000000) scale(0.100000,-0.100000)"
fill="#000000" stroke="none">
<path d="M123 427 c2 -7 0 -22 -4 -34 -7 -20 -5 -23 16 -23 16 0 25 -6 25 -16
0 -9 5 -12 12 -8 7 5 3 -5 -10 -20 -24 -31 -28 -46 -12 -46 6 0 10 7 10 15 0
17 46 39 61 29 6 -3 7 -14 4 -25 -4 -11 -2 -19 4 -19 6 0 11 9 11 20 0 24 37
47 53 31 7 -7 5 -17 -9 -32 l-19 -22 24 13 c13 6 26 21 28 31 4 15 8 17 19 8
9 -7 12 -20 8 -32 -4 -12 -2 -17 4 -13 16 9 11 104 -5 118 -8 6 -38 10 -68 9
-30 -1 -77 5 -105 13 -38 11 -50 12 -47 3z m97 -51 c14 -18 14 -18 -7 -6 -12
8 -19 18 -16 23 3 4 6 7 7 5 1 -2 8 -12 16 -22z m90 16 c0 -5 -13 -7 -30 -4
-16 2 -30 6 -30 8 0 2 14 4 30 4 17 0 30 -4 30 -8z m40 -12 c0 -5 -4 -10 -10
-10 -5 0 -10 5 -10 10 0 6 5 10 10 10 6 0 10 -4 10 -10z"/>
<path d="M122 218 c0 -13 -1 -30 -3 -38 -3 -11 3 -14 19 -12 15 2 22 -2 22
-13 0 -10 4 -13 12 -9 7 5 3 -5 -10 -20 -24 -31 -28 -46 -12 -46 6 0 10 7 10
15 0 17 46 39 62 29 5 -3 7 -15 5 -26 -4 -12 -1 -18 6 -15 7 2 14 12 16 23 4
21 19 34 39 34 18 0 15 -28 -5 -39 -10 -5 -15 -12 -12 -15 9 -9 60 34 54 45
-4 5 -2 9 4 9 13 0 24 -37 15 -51 -4 -8 -3 -9 4 -5 16 10 12 97 -6 118 -11 13
-25 15 -67 11 -36 -4 -69 0 -101 11 -26 9 -48 16 -50 16 -1 0 -2 -10 -2 -22z
m188 -27 c0 -5 -9 -7 -20 -4 -11 3 -20 7 -20 9 0 2 9 4 20 4 11 0 20 -4 20 -9z
m40 -12 c0 -6 -4 -7 -10 -4 -5 3 -10 11 -10 16 0 6 5 7 10 4 6 -3 10 -11 10
-16z m-129 -6 c13 -16 12 -17 -3 -4 -10 7 -18 15 -18 17 0 8 8 3 21 -13z"/>
</g>
</svg>
